PathFileType	4	(X/Y/Z)	Kaydara	
DataRate	CameraRate	NumFrames	NumMarkers	Units	OrigDataRate	OrigDataStartFrame	OrigNumFrames	
240.00	240.00	4	72	mm	240.00	270	359	
Frame#	Time	Hips			RightUpLeg			RightLeg			RightFoot			RightFoot_End			LeftUpLeg			LeftLeg			LeftFoot			LeftFoot_End			Spine			Spine1			Spine2			Spine3			Neck			Head			Head_End			RightShoulder			RightArm			RightForeArm			RightHand			RightHandThumb1			RightHandThumb2			RightHandThumb3			RightHandThumb3_End			RightInHandIndex			RightHandIndex1			RightHandIndex2			RightHandIndex3			RightHandIndex3_End			RightInHandMiddle			RightHandMiddle1			RightHandMiddle2			RightHandMiddle3			RightHandMiddle3_End			RightInHandRing			RightHandRing1			RightHandRing2			RightHandRing3			RightHandRing3_End			RightInHandPinky			RightHandPinky1			RightHandPinky2			RightHandPinky3			RightHandPinky3_End			LeftShoulder			LeftArm			LeftForeArm			LeftHand			LeftHandThumb1			LeftHandThumb2			LeftHandThumb3			LeftHandThumb3_End			LeftInHandIndex			LeftHandIndex1			LeftHandIndex2			LeftHandIndex3			LeftHandIndex3_End			LeftInHandMiddle			LeftHandMiddle1			LeftHandMiddle2			LeftHandMiddle3			LeftHandMiddle3_End			LeftInHandRing			LeftHandRing1			LeftHandRing2			LeftHandRing3			LeftHandRing3_End			LeftInHandPinky			LeftHandPinky1			LeftHandPinky2			LeftHandPinky3			LeftHandPinky3_End			
		X1	Y1	Z1	X2	Y2	Z2	X3	Y3	Z3	X4	Y4	Z4	X5	Y5	Z5	X6	Y6	Z6	X7	Y7	Z7	X8	Y8	Z8	X9	Y9	Z9	X10	Y10	Z10	X11	Y11	Z11	X12	Y12	Z12	X13	Y13	Z13	X14	Y14	Z14	X15	Y15	Z15	X16	Y16	Z16	X17	Y17	Z17	X18	Y18	Z18	X19	Y19	Z19	X20	Y20	Z20	X21	Y21	Z21	X22	Y22	Z22	X23	Y23	Z23	X24	Y24	Z24	X25	Y25	Z25	X26	Y26	Z26	X27	Y27	Z27	X28	Y28	Z28	X29	Y29	Z29	X30	Y30	Z30	X31	Y31	Z31	X32	Y32	Z32	X33	Y33	Z33	X34	Y34	Z34	X35	Y35	Z35	X36	Y36	Z36	X37	Y37	Z37	X38	Y38	Z38	X39	Y39	Z39	X40	Y40	Z40	X41	Y41	Z41	X42	Y42	Z42	X43	Y43	Z43	X44	Y44	Z44	X45	Y45	Z45	X46	Y46	Z46	X47	Y47	Z47	X48	Y48	Z48	X49	Y49	Z49	X50	Y50	Z50	X51	Y51	Z51	X52	Y52	Z52	X53	Y53	Z53	X54	Y54	Z54	X55	Y55	Z55	X56	Y56	Z56	X57	Y57	Z57	X58	Y58	Z58	X59	Y59	Z59	X60	Y60	Z60	X61	Y61	Z61	X62	Y62	Z62	X63	Y63	Z63	X64	Y64	Z64	X65	Y65	Z65	X66	Y66	Z66	X67	Y67	Z67	X68	Y68	Z68	X69	Y69	Z69	X70	Y70	Z70	X71	Y71	Z71	X72	Y72	Z72	

270	1.121	6198.941	914.58397	126.699	6247.336590845162	889.0086752582635	50.94865586545174	6150.648772938666	493.8971179301128	-49.25934484815477	6140.206639365972	102.58871069676589	-126.92805157637204	5989.067166010818	25.8372277657477	-38.5846385863485	6163.888162519625	913.7254714116225	214.3444751797247	6070.145346246047	511.621462615431	284.636471722788	5989.391132819204	86.58618923555471	364.5918870879704	5868.532914122319	3.7340234195552093	241.84102449161705	6136.904818681715	1033.6256684197674	77.0451162639906	6077.45240363497	1089.0997206232596	23.905735338302346	6012.4919891052905	1139.857243502009	-34.73952300815353	5946.162108758732	1177.4905449937069	-94.94747934769218	5874.10002946207	1218.104581748599	-157.67263616647134	5807.027602104921	1255.9294507172963	-212.27281183734368	5672.888945998186	1339.915352171187	-230.653824881966	5911.81131395394	1191.2044464965998	-161.17984434683316	5929.508472265393	1105.802421671289	-249.82638831394195	5873.809917393026	881.0057807358205	-131.96919051072618	5802.119255901363	660.0108998056223	-114.48042636490578	5786.711099082605	645.9068307975458	-120.87955249723878	5771.135041533331	635.3092219133266	-114.3866730881233	5762.143983358818	625.9964579813973	-108.49935422421598	5756.236382269132	616.5795304361561	-102.42304839741722	5792.3534657526825	636.3736633627123	-117.51906148763958	5782.570025475623	598.760467385876	-112.9915271541982	5773.612352923155	579.5899114112359	-104.77711208348887	5766.110775600234	576.0092969763793	-98.35452691083745	5758.598126382668	578.6696735429555	-92.15108564125023	5797.640144953868	632.7594289870926	-113.72154098594498	5790.957851250258	594.1157067665138	-107.25288146118922	5781.909866363648	572.850678582696	-97.79660830360054	5773.208163819952	568.3647248150312	-89.8115547151339	5765.157469209864	571.1949295048564	-82.9089209925044	5801.656854126759	631.0745573810112	-111.195714605255	5799.248636787946	594.7125278749256	-103.32758360055985	5792.115228785108	575.8859726012207	-94.59159199365303	5784.1215503241965	571.4039305296708	-86.62709841971582	5776.741324079991	573.9916034821002	-80.01259359375257	5806.317591682259	630.9411164056972	-108.0881140544164	5807.086372056626	597.1895059496051	-99.09377490203447	5802.559002514014	581.817781278789	-91.36182905249737	5797.301506888243	578.4053223827228	-85.1962292955159	5791.093667297545	580.6151434721589	-79.13182266711145	5884.486279166902	1218.5775683372553	-111.46840105660294	5855.74062635903	1234.9243568683148	7.410302225719322	5860.072315339633	982.6538676448857	-43.87269304279913	5868.919296943322	735.5517994033578	-102.00769854816059	5863.8661524220415	714.7828868326726	-123.4135666587481	5877.882913138263	690.2756383817855	-141.66684508511543	5889.14773600369	671.4887690324219	-152.50852975718158	5899.824978352131	654.355537500244	-159.9471231710751	5867.2851722467185	706.0975013763183	-118.71708107035201	5876.892706121773	657.3624114269968	-137.1337166864978	5891.629299302987	626.7276304340309	-149.72210346042166	5903.239790492606	614.6652020331067	-157.5174066046237	5914.5015526423	609.3915202031484	-163.9487356915741	5871.4228461020375	703.2714984570204	-112.979424784023	5883.029520874003	654.2072337025547	-127.83902088050183	5899.634923576592	620.5678864461553	-140.75836150469138	5913.894420242408	605.9139182973598	-149.77100754243162	5926.339271219841	600.0944169028653	-156.61743295698835	5874.030938124619	702.4643194705277	-108.44956060141894	5886.49202902837	657.6335433510806	-117.81620026269374	5901.48429249792	628.1759197024253	-128.21824506173743	5915.51429595915	613.9680338020924	-136.4557448540716	5927.346189589214	608.4616637352929	-142.67706190542893	5877.31004887248	703.3732494087324	-102.74430037298441	5890.529042894104	662.6173164302387	-107.80304484027654	5903.290060175257	639.0102235527709	-114.75245703344477	5913.889194102913	628.6379742429987	-120.09329238977892	5924.580729182804	623.7550710019093	-125.22013857862885
271	1.125	6198.941	914.58397	126.699	6247.1861530323895	888.8152369823487	50.91948083407581	6150.43420605964	493.71589348863154	-49.2755470316605	6140.270443606222	102.40600235757218	-126.96265919868262	5989.13613121279	25.63551138196898	-38.62699025876796	6164.025559026541	913.9241042993633	214.3995561578541	6070.318353931703	511.81090251804864	284.68551756791595	5989.424498371058	86.76105169351037	364.4217610277813	5868.581673632298	3.892623303622705	241.6667579695621	6136.969732789255	1033.6116129621046	76.93144475720568	6077.497497666916	1088.9973226636407	23.721079975380647	6012.512072133901	1139.6640666065464	-34.97580933471362	5946.157583709712	1177.2372937677862	-95.19445843322923	5874.0727073238	1217.7896316456267	-157.93373222070804	5806.989362478649	1255.5704530233008	-212.55135264279033	5672.9991975139	1339.7248390427762	-231.21359772426513	5911.623733863678	1190.647947271009	-161.4012494623429	5928.339895310077	1104.159644208517	-249.3710184756286	5871.486377922935	881.0688487003877	-128.67631579763528	5798.824223171902	659.6398400746257	-106.0571106399671	5783.071461222894	645.4075950929275	-111.40562719189228	5767.931883480124	634.6715990310634	-103.9231393814858	5759.282735811877	625.2607320769207	-97.38512956112672	5753.692632418692	615.7605401851727	-90.79928312459307	5788.745498835481	635.8545487555276	-108.07502734381322	5778.939600476332	598.0169642490191	-102.1806005395251	5770.35483342586	578.7004937924803	-93.07708726707959	5763.2691907793205	575.0536050964956	-86.2105770733483	5756.224991313735	577.675612428058	-79.71310639662566	5794.154634170334	632.2439051620669	-104.43267448010687	5787.51656122376	593.383260467388	-96.71470160710771	5778.892206337764	571.9602250417181	-86.3132308469285	5770.700335634476	567.3948966102973	-77.80458818510348	5763.166109891375	570.1834017924737	-70.58606198259473	5798.254730069634	630.5671365627684	-102.050703671333	5795.947699255663	594.0172673915681	-93.18590993700589	5789.200585401709	575.0545772609548	-83.65359424733958	5781.707738675448	570.4968137595558	-75.19866900258869	5774.8174161574625	573.0456775910914	-68.29406991473749	5803.041385774948	630.4507952766119	-99.15363554070954	5803.96817389364	596.5368322566585	-89.37232886669477	5799.776330855664	581.0593887842492	-81.04999177784075	5794.896816106144	577.5932912774641	-74.54953798676148	5789.130244522758	579.7696505513	-68.24131628147167	5884.64148971369	1218.5517944720345	-111.76456043955726	5856.491858893166	1236.4575544969512	7.116152529361722	5859.385443455006	983.337772488561	-40.61753651458433	5866.513980391156	735.0096870379302	-96.03020881302383	5860.505586514173	714.1343959786359	-116.9811311713471	5873.6198989508475	689.6388529484445	-135.36852732400743	5884.326244912658	670.8577194869902	-146.31668578665133	5894.597782209916	653.7272029725779	-153.8552263323413	5864.0901248560685	705.415673645962	-112.22576925663898	5872.740460714449	656.5227047386977	-130.18284297077093	5886.798798446767	625.8577333615063	-142.79329592511377	5897.99821852032	613.8344896175887	-150.81498430977126	5908.926887314474	608.6323327753918	-157.5771426894302	5868.450894167077	702.5923822848101	-106.55591782043597	5879.244622621824	653.3755710975853	-121.0038493371097	5895.142440388767	619.7042495151989	-133.95813288005502	5908.921603507264	605.0980215276417	-143.2491185226107	5921.009578054143	599.357007749361	-150.46006595696002	5871.24141963671	701.7902916093283	-102.08220774459443	5883.133455693089	656.8247152104672	-111.11848556624156	5897.543507806075	627.3404633204744	-121.56277847183689	5911.128524878862	613.1792856799543	-130.07502149167226	5922.633552556377	607.7470260494665	-136.64204912308165	5874.755451150875	702.7164052281365	-96.48237567163086	5887.598339792088	661.8445038001839	-101.29129355307288	5899.9494813957335	638.2186178270608	-108.29439930267651	5910.251292701067	627.8816614930006	-113.84524184061632	5920.668961725565	623.065112354261	-119.28386109561123
272	1.129	6198.941	914.58397	126.699	6247.033675275149	888.6204766657703	50.89053566520728	6150.21675948091	493.5343229932856	-49.294309910134245	6140.336469010531	102.22316607052589	-127.00016236492061	5989.207343575531	25.43347442221974	-38.67236305233209	6164.164916853451	914.1241053355184	214.45455088196604	6070.4957847213345	512.0011131275551	284.73413614213155	5989.462287742967	86.93634371486313	364.24791373989666	5868.635102992618	4.051361516493564	241.48873280695946	6137.035091435257	1033.5974166674184	76.81712760839211	6077.542517785913	1088.8953551093605	23.536982006297784	6012.5314529645275	1139.4720899038334	-35.21015780283486	5946.151771626186	1176.9862370942722	-95.43821226475073	5874.043523008883	1217.4778887304162	-158.19026431223242	5806.948797269014	1255.2154556027597	-212.82420068910537	5673.10653020145	1339.5364179522821	-231.7691696089293	5911.433905355732	1190.096293236504	-161.61715573040624	5927.168703465703	1102.5386633348287	-248.90687932063983	5869.210824965212	881.196260536029	-125.377400558908	5795.581613689754	659.4358141031868	-97.65669830181835	5779.501039866291	645.1041661942272	-101.94718053332655	5764.811067279971	634.2416198826159	-93.48109965920123	5756.510731352194	624.7390733460933	-86.29817100109514	5751.241963284563	615.1594152639093	-79.20895016688397	5785.200140542617	635.5289656008185	-98.65052056265347	5775.379570954808	597.4937733681367	-91.39400575415176	5767.173777188851	578.0414347293546	-81.40978458856574	5760.509417586211	574.3292064990446	-74.10567353002654	5753.939157796577	576.9100357972983	-67.32015526331598	5790.7254013946185	631.9156227887706	-95.16771359999214	5784.135719850151	592.8607769993688	-86.20748027819664	5775.940756362185	571.2897692919621	-74.87053583197185	5768.2647575415995	566.6457487930064	-65.84620673036427	5761.252807070101	569.3892647388823	-58.318465844631845	5794.904193053462	630.2419105700932	-92.93252906292008	5792.697956822686	593.5204197788747	-83.07982060483599	5786.341273659738	574.4293565513663	-72.76022654621417	5779.354614723692	569.7960070666853	-63.82279521813007	5772.959432673982	572.3027207727772	-56.63452420756762	5799.811289733556	630.1354411757136	-90.2495465976049	5800.892285940103	596.0698240818056	-79.69135411014409	5797.037902769406	580.4912694957872	-70.78672115173859	5792.539608544233	576.970854500101	-63.957606374559404	5787.218559958213	579.1103448133669	-57.41149590131167	5884.795602486045	1218.5268321739454	-112.05801258722549	5857.243673951605	1237.9860108920095	6.810558199253514	5858.749292939213	984.0686773576558	-37.34300704816644	5864.114757834796	734.5916150994008	-90.04983473984922	5857.154653073109	713.6405141375017	-110.5296390611147	5869.354904734962	689.1721586369742	-129.04116489515016	5879.49288509062	670.4057956758345	-140.09076937693064	5889.348932194693	653.2840313255421	-147.72671489147677	5860.899546405002	704.8864741064771	-105.72059108613239	5868.579313515147	655.8664369680253	-123.20949624626418	5881.944906309504	625.1848240990695	-135.83729177479478	5892.72390644016	613.203888620512	-144.08222091599333	5903.311514033593	608.0722673396749	-151.1724657237379	5865.478729612715	702.0596948695926	-100.1241478140824	5875.4439395617355	652.717038083452	-114.15505055482784	5890.617780652527	619.0275989121558	-127.13989146560849	5903.905052486286	604.472434367146	-136.70579195468142	5915.6272968382555	598.8086091403238	-144.27843957496987	5868.448760415883	701.2576012150821	-95.71076825244677	5879.755355804392	656.1769531920818	-104.41549652577338	5893.568339912292	626.6771594348189	-114.89900938568343	5906.6969197790395	612.5653692166456	-123.68311400666175	5917.866613404705	607.2057491186739	-130.59339887587785	5872.194424264186	702.1935482762105	-90.22144267422925	5884.644275132231	661.2195031127715	-94.78256602291162	5896.572827022781	637.5820686100858	-101.83818490717778	5906.568568036636	627.2815695109807	-107.59753472007698	5916.704642092826	622.5296168769489	-113.34610021475714
273	1.133	6198.941	914.58397	126.699	6246.879123823338	888.4244224702712	50.86180680281438	6149.996439801609	493.3524708323696	-49.31582224461355	6140.404713247268	102.04028030091582	-127.04079184871398	5989.280799351096	25.231204282321183	-38.72098245182051	6164.306267506983	914.3254384439994	214.50945745488602	6070.677699813476	512.1920412960109	284.78226552094884	5989.504597332497	87.11199676631604	364.07020895327616	5868.693302333787	4.210165208659511	241.30681211100128	6137.100906179372	1033.5831136702584	76.70223443063226	6077.587507691614	1088.793949935774	23.353576657969338	6012.550201003701	1139.2815459682622	-35.44237467975513	5946.1447447980445	1176.7376767981784	-95.6785060855682	5874.0125504790785	1217.1697244395389	-158.44195360078683	5806.90597833471	1254.8648852376248	-213.09103550380436	5673.21091898547	1339.3503992356696	-232.32008247555487	5911.241959800629	1189.5499369235802	-161.8273276463052	5925.995383844083	1100.9404113324974	-248.43415603665363	5866.984323347955	881.3886046494063	-122.0733944750636	5792.392005738724	659.4003941006818	-89.28266022714251	5776.0009940695545	644.9984173454334	-92.50861549826357	5761.773520660693	634.0211584986002	-83.0658310931173	5753.8286384615	624.4333349240158	-75.24429622429756	5748.884743262762	614.7779730435619	-67.65825938991573	5781.7183099879785	635.3987664711526	-89.24978331024695	5771.890759018395	597.1929724810287	-80.63691721922228	5764.069625752185	577.6148160045624	-69.78103555654678	5757.831576601153	573.8381016880944	-62.04604415412179	5751.740423848948	576.3748203593907	-54.978779992395815	5787.353087288364	631.7763610248661	-85.93068274552502	5780.815722648233	592.5502154729436	-75.73603337590328	5773.055459863537	570.8412642496196	-63.47402442592612	5765.900968074049	566.1191311291395	-53.942374482843945	5759.4167377477615	568.8142301805317	-46.11243930860135	5791.605692006758	630.1006024017881	-83.84503719307112	5789.499479649007	593.2238248150701	-73.01371584430937	5783.536932401262	574.012133709706	-61.91645271825473	5777.061406964477	569.303228274402	-52.504869567877975	5771.166252814745	571.764318357921	-45.03966262333503	5796.627514478959	629.9966943934601	-81.3794642113791	5797.8584333994395	595.7901827891424	-70.05483328688977	5794.3430415586035	580.1150936291986	-60.576396152118974	5790.228880858418	576.539596716774	-53.42509951893946	5785.3572850937535	578.6386885734764	-46.647289123912955	5884.948630526727	1218.5029227049233	-112.34846248686156	5857.99588683573	1239.5092598937595	6.493826212932852	5858.164791841575	984.8467947501673	-34.04998742985327	5861.72148303844	734.2985552334976	-84.06814215554166	5853.813973150138	713.3026693413445	-104.06094581001904	5865.088928159952	688.8771873718798	-122.6862603932459	5874.648801174543	670.1347379766939	-133.8319966012279	5884.0795968199145	653.0278246593581	-141.5625311829197	5857.713727639708	704.5112746167424	-99.20333898097638	5864.409740624849	655.3953711730676	-116.21541922321958	5877.068160410561	624.710819484531	-128.85549723685943	5887.417472412533	612.7753434271101	-137.32018482118968	5897.656146345406	607.7132451753218	-144.73540680062885	5862.506319899446	701.6746976075935	-93.68578367840598	5871.627445097686	652.2332179049018	-107.29417823962288	5886.060941449006	618.5396696938316	-120.30480728511814	5898.844840752457	604.0389174334184	-130.14178235935367	5910.19259540289	598.4509526803014	-138.07290358046748	5865.652694760551	700.8674227208151	-89.33682783697049	5876.357266495591	655.6916477845235	-97.7086515393764	5889.558302277612	626.1875139895315	-108.22800505573346	5902.219044372383	612.1278060551888	-117.28067998263347	5913.0450133222985	606.8393230622623	-124.53138396947656	5869.626428651435	701.8057330612874	-83.96297066846667	5881.665959638233	660.7434967959788	-88.27811564523336	5893.159120556434	637.1018235216163	-95.38476067136524	5902.840047240099	626.8389441806527	-101.35080675805705	5912.686847040408	622.1497949396111	-107.40714374778508
